<?xml version="1.0" encoding="UTF-8" standalone="no"?>
<svg
   xmlns:dc="http://purl.org/dc/elements/1.1/"
   xmlns:cc="http://creativecommons.org/ns#"
   xmlns:rdf="http://www.w3.org/1999/02/22-rdf-syntax-ns#"
   xmlns:svg="http://www.w3.org/2000/svg"
   xmlns="http://www.w3.org/2000/svg"
   xmlns:sodipodi="http://sodipodi.sourceforge.net/DTD/sodipodi-0.dtd"
   xmlns:inkscape="http://www.inkscape.org/namespaces/inkscape"
   viewBox="0 0 128 128"
   id="svg3398"
   version="1.1"
   inkscape:version="0.91 r13725"
   sodipodi:docname="logo.svg">
  <metadata
     id="metadata3420">
    <rdf:RDF>
      <cc:Work
         rdf:about="">
        <dc:format>image/svg+xml</dc:format>
        <dc:type
           rdf:resource="http://purl.org/dc/dcmitype/StillImage" />
        <dc:title>new-logo</dc:title>
      </cc:Work>
    </rdf:RDF>
  </metadata>
  <defs
     id="defs3418" />
  <sodipodi:namedview
     pagecolor="#000000"
     bordercolor="#666666"
     borderopacity="1"
     objecttolerance="10"
     gridtolerance="10"
     guidetolerance="10"
     inkscape:pageopacity="1"
     inkscape:pageshadow="2"
     inkscape:window-width="2700"
     inkscape:window-height="1684"
     id="namedview3416"
     showgrid="false"
     inkscape:zoom="10.91"
     inkscape:cx="52.666081"
     inkscape:cy="63.997479"
     inkscape:window-x="0"
     inkscape:window-y="60"
     inkscape:window-maximized="1"
     inkscape:current-layer="svg3398" />
  <title
     id="title3400">new-logo</title>
  <path
     d="M64,124A60,60,0,0,1,21.574,21.574a60,60,0,0,1,84.853,84.853A59.609,59.609,0,0,1,64,124Z"
     style="fill:#ffffff;fill-opacity:1;stroke:none"
     id="path3402" />
  <path
     d="M64,9.306a54.694,54.694,0,0,0-38.674,93.368,54.694,54.694,0,1,0,77.349-77.349A54.336,54.336,0,0,0,64,9.306Z"
     style="fill:#252526"
     id="path3404" />
  <polygon
     points="94.272,39.105 94.272,88.895 78.261,95.306 78.261,95.306 55.097,72.785 41.368,83.242 33.727,79.399 33.727,48.646 41.38,44.774 55.129,55.233 78.257,32.693 "
     style="opacity:0.9;fill:#103446"
     id="polygon3408"
     transform="matrix(0.52766344,0,0,0.52766344,-5.7706964,30.229304)" />
  <path
     inkscape:connector-curvature="0"
     d="m 41.819797,52.321517 -5.799549,-2.320664 -12.527785,12.211187 -7.659035,-5.826987 -1.65317,0.836874 0,13.575725 1.643672,0.826849 7.65112,-5.826987 12.545198,12.201689 5.796911,-2.321719 0,-23.355967 z m -25.170074,14.870611 0,-6.374702 3.545898,3.165981 z m 11.344764,-3.207138 7.082299,-5.298797 0,10.637695 -7.091797,-5.338898 z"
     style="fill:#007acc"
     id="path3410" />
  <polygon
     points="63.972,63.972 63.99,63.972 63.99,63.972 77.412,53.93 77.412,74.09 "
     style="fill:#ffffff"
     id="polygon3412"
     transform="matrix(0.52766344,0,0,0.52766344,-5.7706964,30.229304)" />
  <polygon
     points="42.49,70.05 42.49,57.969 49.21,63.972 42.49,70.05 "
     style="fill:#ffffff"
     id="polygon3414"
     transform="matrix(0.52766344,0,0,0.52766344,-5.7706964,30.229304)" />
  <text
     sodipodi:linespacing="125%"
     id="text4301"
     y="77.495872"
     x="51.514214"
     style="font-style:normal;font-weight:normal;font-size:38.40881729px;line-height:125%;font-family:sans-serif;letter-spacing:0px;word-spacing:0px;fill:#103446;fill-opacity:1;stroke:#103446;stroke-width:4.5;stroke-linecap:round;stroke-linejoin:miter;stroke-opacity:1;stroke-miterlimit:4;stroke-dasharray:none;opacity:0.9;"
     xml:space="preserve"><tspan
       y="77.495872"
       x="51.514214"
       id="tspan4303"
       sodipodi:role="line">IDL</tspan></text>
  <text
     xml:space="preserve"
     style="font-style:normal;font-weight:normal;font-size:38.40881729px;line-height:125%;font-family:sans-serif;letter-spacing:0px;word-spacing:0px;fill:#007acc;fill-opacity:1;stroke:none;stroke-width:1px;stroke-linecap:butt;stroke-linejoin:miter;stroke-opacity:1;"
     x="51.514214"
     y="77.495872"
     id="text4291"
     sodipodi:linespacing="125%"><tspan
       sodipodi:role="line"
       id="tspan4293"
       x="51.514214"
       y="77.495872">IDL</tspan></text>
</svg>
